<mxfile host="app.diagrams.net" modified="2021-06-03T08:43:32.081Z" agent="5.0 (Macintosh; Intel Mac OS X 10_15_7) AppleWebKit/605.1.15 (KHTML, like Gecko) Version/14.1.1 Safari/605.1.15" etag="35z35gNy8djv6jWJI3Qs" version="14.7.3" type="github">
  <diagram name="Page-1" id="0783ab3e-0a74-02c8-0abd-f7b4e66b4bec">
    <mxGraphModel dx="946" dy="645" grid="1" gridSize="10" guides="1" tooltips="1" connect="1" arrows="1" fold="1" page="1" pageScale="1" pageWidth="850" pageHeight="1100" background="none" math="0" shadow="0">
      <root>
        <mxCell id="0" />
        <mxCell id="1" parent="0" />
        <mxCell id="cfZWPFL0STr_E7eZobzo-2" style="edgeStyle=orthogonalEdgeStyle;rounded=0;orthogonalLoop=1;jettySize=auto;html=1;entryX=0.5;entryY=0;entryDx=0;entryDy=0;strokeColor=#000000;" edge="1" parent="1" source="60571a20871a0731-4" target="cfZWPFL0STr_E7eZobzo-1">
          <mxGeometry relative="1" as="geometry" />
        </mxCell>
        <mxCell id="60571a20871a0731-4" value="" style="ellipse;whiteSpace=wrap;html=1;rounded=0;shadow=0;comic=0;labelBackgroundColor=none;strokeWidth=1;fillColor=#000000;fontFamily=Verdana;fontSize=12;align=center;" parent="1" vertex="1">
          <mxGeometry x="385" y="40" width="40" height="40" as="geometry" />
        </mxCell>
        <mxCell id="cfZWPFL0STr_E7eZobzo-3" style="edgeStyle=orthogonalEdgeStyle;rounded=0;orthogonalLoop=1;jettySize=auto;html=1;exitX=0.5;exitY=1;exitDx=0;exitDy=0;strokeColor=#000000;entryX=0.5;entryY=0;entryDx=0;entryDy=0;" edge="1" parent="1" source="cfZWPFL0STr_E7eZobzo-1" target="cfZWPFL0STr_E7eZobzo-4">
          <mxGeometry relative="1" as="geometry">
            <mxPoint x="405" y="230" as="targetPoint" />
          </mxGeometry>
        </mxCell>
        <mxCell id="cfZWPFL0STr_E7eZobzo-1" value="Kategori &lt;br&gt;Görüntüle" style="rounded=1;whiteSpace=wrap;html=1;" vertex="1" parent="1">
          <mxGeometry x="345" y="120" width="120" height="60" as="geometry" />
        </mxCell>
        <mxCell id="cfZWPFL0STr_E7eZobzo-5" style="edgeStyle=orthogonalEdgeStyle;rounded=0;orthogonalLoop=1;jettySize=auto;html=1;strokeColor=#000000;" edge="1" parent="1" source="cfZWPFL0STr_E7eZobzo-4">
          <mxGeometry relative="1" as="geometry">
            <mxPoint x="510" y="270" as="targetPoint" />
          </mxGeometry>
        </mxCell>
        <mxCell id="cfZWPFL0STr_E7eZobzo-7" value="Çıkart" style="edgeLabel;html=1;align=center;verticalAlign=middle;resizable=0;points=[];" vertex="1" connectable="0" parent="cfZWPFL0STr_E7eZobzo-5">
          <mxGeometry x="-0.0769" y="-1" relative="1" as="geometry">
            <mxPoint x="-10" y="-11" as="offset" />
          </mxGeometry>
        </mxCell>
        <mxCell id="cfZWPFL0STr_E7eZobzo-9" style="edgeStyle=orthogonalEdgeStyle;rounded=0;orthogonalLoop=1;jettySize=auto;html=1;exitX=0;exitY=0.5;exitDx=0;exitDy=0;entryX=1;entryY=0.5;entryDx=0;entryDy=0;strokeColor=#000000;" edge="1" parent="1" source="cfZWPFL0STr_E7eZobzo-4" target="cfZWPFL0STr_E7eZobzo-8">
          <mxGeometry relative="1" as="geometry" />
        </mxCell>
        <mxCell id="cfZWPFL0STr_E7eZobzo-12" value="Ekle" style="edgeLabel;html=1;align=center;verticalAlign=middle;resizable=0;points=[];" vertex="1" connectable="0" parent="cfZWPFL0STr_E7eZobzo-9">
          <mxGeometry x="-0.3846" y="-4" relative="1" as="geometry">
            <mxPoint x="-13" y="-6" as="offset" />
          </mxGeometry>
        </mxCell>
        <mxCell id="cfZWPFL0STr_E7eZobzo-4" value="Kategori" style="rhombus;whiteSpace=wrap;html=1;" vertex="1" parent="1">
          <mxGeometry x="365" y="230" width="80" height="80" as="geometry" />
        </mxCell>
        <mxCell id="cfZWPFL0STr_E7eZobzo-11" style="edgeStyle=orthogonalEdgeStyle;rounded=0;orthogonalLoop=1;jettySize=auto;html=1;exitX=0.5;exitY=1;exitDx=0;exitDy=0;strokeColor=#000000;entryX=0.75;entryY=0;entryDx=0;entryDy=0;" edge="1" parent="1" source="cfZWPFL0STr_E7eZobzo-6" target="cfZWPFL0STr_E7eZobzo-10">
          <mxGeometry relative="1" as="geometry">
            <mxPoint x="440" y="360" as="targetPoint" />
          </mxGeometry>
        </mxCell>
        <mxCell id="cfZWPFL0STr_E7eZobzo-6" value="Kategoriyi&lt;br&gt;Bul" style="rounded=1;whiteSpace=wrap;html=1;" vertex="1" parent="1">
          <mxGeometry x="510" y="250" width="100" height="40" as="geometry" />
        </mxCell>
        <mxCell id="cfZWPFL0STr_E7eZobzo-13" style="edgeStyle=orthogonalEdgeStyle;rounded=0;orthogonalLoop=1;jettySize=auto;html=1;exitX=0.5;exitY=1;exitDx=0;exitDy=0;strokeColor=#000000;entryX=0.25;entryY=0;entryDx=0;entryDy=0;" edge="1" parent="1" source="cfZWPFL0STr_E7eZobzo-8" target="cfZWPFL0STr_E7eZobzo-10">
          <mxGeometry relative="1" as="geometry">
            <mxPoint x="300" y="320" as="targetPoint" />
          </mxGeometry>
        </mxCell>
        <mxCell id="cfZWPFL0STr_E7eZobzo-8" value="Kategori&amp;nbsp;&lt;br&gt;İsmi Gir" style="rounded=1;whiteSpace=wrap;html=1;" vertex="1" parent="1">
          <mxGeometry x="200" y="250" width="100" height="40" as="geometry" />
        </mxCell>
        <mxCell id="cfZWPFL0STr_E7eZobzo-15" style="edgeStyle=orthogonalEdgeStyle;rounded=0;orthogonalLoop=1;jettySize=auto;html=1;exitX=0.5;exitY=1;exitDx=0;exitDy=0;strokeColor=#000000;" edge="1" parent="1" source="cfZWPFL0STr_E7eZobzo-10" target="cfZWPFL0STr_E7eZobzo-14">
          <mxGeometry relative="1" as="geometry" />
        </mxCell>
        <mxCell id="cfZWPFL0STr_E7eZobzo-10" value="" style="whiteSpace=wrap;html=1;rounded=0;shadow=0;comic=0;labelBackgroundColor=none;strokeWidth=1;fontFamily=Verdana;fontSize=12;align=center;rotation=0;fillColor=#000000;" vertex="1" parent="1">
          <mxGeometry x="331.5" y="360" width="147" height="10" as="geometry" />
        </mxCell>
        <mxCell id="cfZWPFL0STr_E7eZobzo-17" style="edgeStyle=orthogonalEdgeStyle;rounded=0;orthogonalLoop=1;jettySize=auto;html=1;exitX=0.5;exitY=1;exitDx=0;exitDy=0;entryX=0.5;entryY=0;entryDx=0;entryDy=0;strokeColor=#000000;" edge="1" parent="1" source="cfZWPFL0STr_E7eZobzo-14" target="cfZWPFL0STr_E7eZobzo-16">
          <mxGeometry relative="1" as="geometry" />
        </mxCell>
        <mxCell id="cfZWPFL0STr_E7eZobzo-14" value="Kategori &lt;br&gt;Görüntüle" style="rounded=1;whiteSpace=wrap;html=1;" vertex="1" parent="1">
          <mxGeometry x="345" y="440" width="120" height="60" as="geometry" />
        </mxCell>
        <mxCell id="cfZWPFL0STr_E7eZobzo-16" value="" style="ellipse;whiteSpace=wrap;html=1;rounded=0;shadow=0;comic=0;labelBackgroundColor=none;strokeWidth=1;fillColor=#000000;fontFamily=Verdana;fontSize=12;align=center;" vertex="1" parent="1">
          <mxGeometry x="385" y="560" width="40" height="40" as="geometry" />
        </mxCell>
      </root>
    </mxGraphModel>
  </diagram>
</mxfile>
